<svg width="183" height="21" viewBox="0 0 183 21" fill="none" xmlns="http://www.w3.org/2000/svg">
<path d="M143.846 5.15753C143.343 4.95164 142.786 4.91797 142.261 5.0617C141.683 5.22885 141.169 5.56955 140.789 6.03824L140.711 6.12737C139.824 7.25724 139.642 9.12216 139.642 10.1984V20.2293H136.358V9.908C136.291 8.4532 136.777 7.02738 137.716 5.91845C138.165 5.41902 138.716 5.02333 139.331 4.75863C139.947 4.49393 140.612 4.3665 141.281 4.38511C141.9 4.35656 142.516 4.47201 143.083 4.72245C143.352 4.8397 143.608 4.98555 143.846 5.15753Z" fill="#C00000"/>
<path d="M1.86719 5.76272V20.2336H6.98547V14.5535H15.0623V9.82415H6.98547V6.18247H15.6999V1.45117H6.29255C3.14152 1.45117 1.86719 3.12059 1.86719 5.76272Z" fill="#C00000"/>
<path d="M22.3443 1.45117H17.2812V15.9613C17.2812 18.5757 18.5384 20.2288 21.659 20.2288H30.5106V15.1419H22.3443V1.45117Z" fill="#C00000"/>
<path d="M40.4881 1.03451C39.4604 1.01002 38.4538 1.33026 37.6271 1.94472C36.8004 2.55917 36.2008 3.43287 35.9227 4.42798L31.1094 20.229H36.3382L37.2313 17.0569H43.7878L44.6457 20.229H49.8745L45.0526 4.42798C44.7746 3.43303 44.175 2.55945 43.3486 1.94501C42.5221 1.33058 41.5157 1.01023 40.4881 1.03451ZM38.497 12.4627L40.2946 5.92394C40.3499 5.73227 40.4052 5.64602 40.5167 5.64602C40.6282 5.64602 40.6835 5.73035 40.7378 5.92394L42.5097 12.4627H38.497Z" fill="#C00000"/>
<path d="M58.8541 20.2037C53.185 20.2037 49.0703 16.1423 49.0703 10.5485C49.0703 5.12242 53.0792 1.0332 58.3966 1.0332C61.0406 1.0332 63.3186 1.98004 64.9846 3.77117C66.5449 5.45592 67.4037 7.73101 67.4037 10.192V11.9544H54.485C54.9292 14.0014 56.5952 15.3086 58.8122 15.3086C60.6317 15.3086 62.1119 14.4336 62.8706 12.9127L62.9917 12.6684L67.3122 14.8543L67.1988 15.0977C65.6108 18.3887 62.6466 20.2037 58.8541 20.2037ZM61.8489 8.60788C61.5219 7.03526 60.1332 5.96384 58.3595 5.96384C56.5857 5.96384 55.1837 7.01513 54.7233 8.61076L61.8489 8.60788Z" fill="#C00000"/>
<path d="M76.189 2.01265C75.2701 2.54359 74.4917 3.28908 73.9197 4.18615V1.44531H68.9844V20.2287H73.9197V9.3995C74.0804 8.42136 74.4207 7.69142 74.9405 7.2097C75.6934 6.50692 76.8105 6.15553 78.2916 6.15553H79.5383V1.17315C78.3677 1.15014 77.212 1.43982 76.189 2.01265Z" fill="#C00000"/>
<path d="M140.856 12.8983C140.948 12.8987 141.038 12.8713 141.115 12.8197C141.172 12.7813 141.221 12.7305 141.256 12.6711C141.292 12.6116 141.314 12.545 141.321 12.4759C141.327 12.4069 141.319 12.3372 141.296 12.2719C141.272 12.2066 141.235 12.1472 141.186 12.0982C141.138 12.0491 141.079 12.0116 141.014 11.9883C140.949 11.9649 140.879 11.9564 140.811 11.9632C140.742 11.9701 140.676 11.9922 140.617 12.028C140.557 12.0637 140.507 12.1122 140.469 12.17C140.422 12.2405 140.395 12.3224 140.391 12.407C140.387 12.4916 140.406 12.5758 140.446 12.6505C140.485 12.7252 140.544 12.7877 140.617 12.8313C140.689 12.875 140.771 12.8981 140.856 12.8983Z" fill="#C00000"/>
<path d="M109.2 1.00439C107.931 0.967375 106.669 1.19717 105.494 1.67905C104.319 2.16093 103.257 2.88427 102.376 3.80273C101.495 4.69359 100.803 5.75547 100.343 6.92373C99.8825 8.09199 99.6635 9.3422 99.699 10.5983C99.6669 11.866 99.8876 13.1274 100.348 14.308C100.809 15.4886 101.5 16.5646 102.38 17.4724C104.22 19.2331 106.663 20.2151 109.204 20.2151C111.744 20.2151 114.187 19.2331 116.027 17.4724C116.908 16.5654 117.601 15.4917 118.066 14.3136C118.531 13.1354 118.759 11.8762 118.737 10.6088C118.757 9.35192 118.527 8.10362 118.062 6.93684C117.597 5.77006 116.905 4.70819 116.027 3.81327C115.15 2.88968 114.088 2.16224 112.913 1.67829C111.737 1.19434 110.473 0.964723 109.204 1.00439H109.2ZM113.626 14.9903C113.06 15.606 112.373 16.0973 111.609 16.4333C110.844 16.7693 110.019 16.9428 109.185 16.9428C108.351 16.9428 107.526 16.7693 106.761 16.4333C105.997 16.0973 105.31 15.606 104.744 14.9903C104.157 14.4254 103.693 13.7445 103.38 12.9905C103.067 12.2365 102.913 11.4256 102.927 10.6088C102.913 9.79707 103.065 8.991 103.373 8.24082C103.682 7.49064 104.141 6.81241 104.722 6.2484C105.289 5.63448 105.977 5.1448 106.741 4.80996C107.505 4.47511 108.33 4.30229 109.163 4.30229C109.997 4.30229 110.821 4.47511 111.585 4.80996C112.349 5.1448 113.037 5.63448 113.604 6.2484C114.196 6.80681 114.665 7.48287 114.982 8.23358C115.3 8.98428 115.458 9.79319 115.448 10.6088C115.463 11.4262 115.308 12.2378 114.995 12.9921C114.681 13.7464 114.215 14.4269 113.626 14.9903Z" fill="#2E3E77"/>
<path d="M147.065 3.24825C146.369 2.51125 145.524 1.93307 144.587 1.5528C143.649 1.17254 142.642 0.999055 141.632 1.04408C140.249 1.04032 138.885 1.37236 137.656 2.012C136.511 2.5763 135.554 3.46253 134.901 4.56309C134.426 3.48225 133.613 2.58665 132.586 2.012C131.523 1.39394 130.315 1.07391 129.087 1.08529C127.934 1.05079 126.794 1.33521 125.791 1.90754C124.81 2.47734 124.012 3.31813 123.491 4.33021V1.45041H120.242V20.2261H123.559V10.0122C123.495 8.51348 124.013 7.04844 125.005 5.92776C125.451 5.4201 126.004 5.01762 126.622 4.74895C127.241 4.48029 127.911 4.35204 128.585 4.37334C129.207 4.34654 129.826 4.46499 130.395 4.71938C130.964 4.97378 131.466 5.35721 131.863 5.83959C132.732 7.0115 133.162 8.45478 133.076 9.91443V20.228H136.363V9.91443C136.298 8.46014 136.785 7.03523 137.724 5.92776C138.173 5.4285 138.723 5.0329 139.339 4.76819C139.954 4.50348 140.618 4.37597 141.287 4.39442C141.905 4.36667 142.521 4.48183 143.088 4.73105C143.655 4.98026 144.157 5.35687 144.556 5.83192C145.411 6.98438 145.832 8.40306 145.748 9.83776V20.23H149.067V9.11326C149.189 6.97015 148.47 4.8643 147.065 3.24825Z" fill="#2E3E77"/>
<path d="M163.481 16.2678C162.399 16.6275 161.268 16.816 160.129 16.8266C158.557 16.9211 157.007 16.4229 155.78 15.4293C154.799 14.6187 154.154 13.4697 153.969 12.2064H168.436C168.494 11.3133 168.531 10.2466 168.531 9.98021C168.596 8.7902 168.408 7.59997 167.979 6.48884C167.551 5.3777 166.891 4.37118 166.045 3.53636C165.22 2.70343 164.232 2.0511 163.144 1.62034C162.056 1.18957 160.891 0.989667 159.722 1.03319C158.487 0.990297 157.257 1.20888 156.111 1.67478C154.965 2.14067 153.93 2.84347 153.071 3.73761C151.354 5.59604 150.437 8.06191 150.521 10.5974C150.517 11.7972 150.71 12.9894 151.093 14.126C151.48 15.2428 152.057 16.2838 152.797 17.2032C153.61 18.1865 154.654 18.9498 155.836 19.4236C157.234 19.9942 158.732 20.2745 160.241 20.2478C161.699 20.2453 163.146 19.9962 164.521 19.5109C165.79 19.0785 166.98 18.4437 168.048 17.6306L166.473 14.7489C165.56 15.4086 164.551 15.921 163.481 16.2678ZM155.961 5.7712C156.996 4.81375 158.358 4.29468 159.763 4.3222C161.162 4.2732 162.523 4.78394 163.548 5.74245C164.018 6.13354 164.402 6.61807 164.677 7.16561C164.951 7.71314 165.11 8.31185 165.144 8.92412H153.965C154.252 7.67449 154.957 6.5616 155.961 5.7712Z" fill="#2E3E77"/>
<path d="M178.432 10.0808C177.68 9.6687 176.9 9.31004 176.098 9.00748L174.161 8.16511C173.737 8.01487 173.37 7.73649 173.11 7.36814C172.849 6.99979 172.708 6.55948 172.707 6.10756C172.7 5.82096 172.757 5.53648 172.874 5.27477C172.991 5.01733 173.163 4.7885 173.377 4.60393C173.893 4.17578 174.552 3.95977 175.22 3.99923C175.959 3.99234 176.688 4.17425 177.338 4.52793C177.988 4.8816 178.539 5.39544 178.937 6.02131L181.203 3.84589C180.639 2.95102 179.832 2.23658 178.878 1.78643C177.883 1.31453 176.795 1.07099 175.695 1.07343C174.168 0.943015 172.647 1.37903 171.419 2.29914C170.315 3.32162 169.66 4.74261 169.597 6.25035C169.548 7.14643 169.755 8.03789 170.194 8.81916C170.633 9.60043 171.286 10.2388 172.075 10.6587C172.409 10.8504 173.13 11.1752 174.205 11.6343C175.28 12.0933 176.142 12.4632 176.375 12.6099C177.424 13.1552 178.311 13.7215 178.311 14.6482C178.312 14.982 178.235 15.3113 178.086 15.6096C177.937 15.9079 177.72 16.1669 177.453 16.3656C176.816 16.8471 176.033 17.0919 175.236 17.0585C174.385 17.0423 173.555 16.7914 172.836 16.333C172.034 15.8348 171.381 15.1266 170.948 14.2841L168.445 16.2324C169.138 17.4781 170.138 18.5228 171.35 19.2655C172.493 19.908 173.781 20.244 175.09 20.2411C176.724 20.3042 178.324 19.7582 179.583 18.7078C180.143 18.1575 180.587 17.4993 180.889 16.7725C181.191 16.0458 181.345 15.2653 181.34 14.4777C181.343 13.5365 181.067 12.6157 180.548 11.8324C180.029 11.0491 179.29 10.4384 178.425 10.0779L178.432 10.0808Z" fill="#2E3E77"/>
<path d="M94.8472 1.45117V8.91277H86.2995V1.45117H82.9531V20.2345H86.2967V12.2708H94.8434V20.2345H98.1793V1.45117H94.8472Z" fill="#2E3E77"/>
</svg>
