<svg width="16" height="415" viewBox="0 0 16 415" fill="none" xmlns="http://www.w3.org/2000/svg">
<path opacity="0.3" d="M15.5789 229.878L13.6937 228.358L6.33304 222.421L13.7178 216.503L15.641 214.962L13.7178 213.412L6.38507 207.5L13.7157 201.586L15.636 200.037L13.7157 198.498L6.32904 192.579L13.6917 186.64L15.5739 185.121L13.6917 183.612L6.26399 177.66L14.082 171.327L14.7874 170.756L14.7824 169.864L14.5563 127.398L14.152 84.9322C14.0209 70.7772 13.9029 56.6212 13.6467 42.4661C13.4216 28.3111 13.2334 14.155 12.9052 0C12.577 14.155 12.3889 28.3111 12.1638 42.4661C11.9086 56.6212 11.7895 70.7772 11.6584 84.9322L11.2542 127.398L11.033 168.958L1.99326 176.171L0.12508 177.66L1.99326 179.167L9.37497 185.121L1.96924 191.055L0.0680366 192.579L1.96924 194.113L9.31294 200.037L1.94524 205.941L0 207.5L1.94524 209.058L9.30993 214.962L1.96825 220.885L0.0650287 222.421L1.96825 223.946L9.37198 229.879L1.99326 235.832L0.124072 237.34L1.99326 238.832L11.029 246.045L11.2482 287.602L11.6554 330.068C11.7895 344.224 11.9036 358.379 12.1618 372.534C12.3889 386.689 12.577 400.845 12.9072 415C13.2384 400.845 13.4256 386.689 13.6527 372.534C13.9099 358.379 14.025 344.223 14.159 330.068L14.5653 287.602L14.7894 245.136L14.7944 244.241L14.087 243.668L6.269 237.339L13.6947 231.389L15.5789 229.878Z" fill="#F29E8D"/>
</svg>
