<svg width="16" height="415" viewBox="0 0 16 415" fill="none" xmlns="http://www.w3.org/2000/svg">
<path opacity="0.3" d="M0.0618987 185.122L1.94711 186.642L9.30781 192.579L1.92309 198.497L-0.000137417 200.038L1.92309 201.588L9.25577 207.5L1.9251 213.414L0.00487066 214.963L1.9251 216.502L9.31181 222.421L1.94911 228.36L0.0669067 229.879L1.94911 231.388L9.37685 237.34L1.55886 243.673L0.853404 244.244L0.858413 245.136L1.08455 287.602L1.48882 330.068C1.6199 344.223 1.73798 358.379 1.99415 372.534C2.21929 386.689 2.40741 400.845 2.73562 415C3.06383 400.845 3.25195 386.689 3.47709 372.534C3.73225 358.379 3.85133 344.223 3.98242 330.068L4.38667 287.602L4.60782 246.042L13.6476 238.829L15.5158 237.34L13.6476 235.833L6.26587 229.879L13.6716 223.945L15.5728 222.421L13.6716 220.887L6.32791 214.963L13.6956 209.059L15.6408 207.5L13.6956 205.942L6.33092 200.038L13.6726 194.115L15.5758 192.579L13.6726 191.054L6.26887 185.121L13.6476 179.168L15.5168 177.66L13.6476 176.168L4.61182 168.955L4.39267 127.398L3.98541 84.9322C3.85132 70.7762 3.73725 56.6211 3.47909 42.4661C3.25194 28.311 3.06383 14.155 2.73362 0C2.40241 14.155 2.21528 28.311 1.98813 42.4661C1.73097 56.6211 1.6159 70.7772 1.48181 84.9322L1.07555 127.398L0.851404 169.864L0.846411 170.759L1.55386 171.332L9.37184 177.661L1.94611 183.611L0.0618987 185.122Z" fill="#8C9BD9"/>
</svg>
