<svg width="176" height="20" viewBox="0 0 176 20" fill="none" xmlns="http://www.w3.org/2000/svg">
<path fill-rule="evenodd" clip-rule="evenodd" d="M17.4761 1.6001H2.5241C2.01379 1.6001 1.6001 2.01379 1.6001 2.5241V17.4761C1.6001 17.7212 1.69745 17.9562 1.87073 18.1295C2.04401 18.3027 2.27904 18.4001 2.5241 18.4001H10.5713V11.8901H8.3873V9.3701H10.5713V7.4801C10.4797 6.5819 10.7898 5.68915 11.4184 5.04108C12.047 4.39302 12.9299 4.05591 13.8305 4.1201C14.4843 4.11607 15.1378 4.14973 15.7877 4.2209V6.4889H14.4521C13.3937 6.4889 13.1921 6.9929 13.1921 7.7237V9.3449H15.7121L15.3845 11.8649H13.1921V18.4001H17.4761C17.7212 18.4001 17.9562 18.3027 18.1295 18.1295C18.3027 17.9562 18.4001 17.7212 18.4001 17.4761V2.5241C18.4001 2.27904 18.3027 2.04401 18.1295 1.87073C17.9562 1.69745 17.7212 1.6001 17.4761 1.6001Z" fill="#323036"/>
<path fill-rule="evenodd" clip-rule="evenodd" d="M70.4001 4.76448C69.7687 5.03985 69.101 5.22189 68.4177 5.30493C69.1386 4.872 69.6788 4.19092 69.9381 3.38804C69.2607 3.79343 68.5191 4.07905 67.7457 4.23248C66.6824 3.0733 64.9743 2.78279 63.5909 3.52584C62.2075 4.2689 61.4982 5.8578 61.8657 7.39071C59.0957 7.24986 56.5155 5.93299 54.7677 3.76804C54.4646 4.30018 54.3053 4.90282 54.3057 5.51604C54.3035 6.67269 54.8774 7.75364 55.8345 8.3956C55.2868 8.38062 54.7508 8.23287 54.2721 7.96493V8.00715C54.2806 9.65211 55.4392 11.064 57.0441 11.3849C56.7444 11.4766 56.4333 11.5249 56.1201 11.5285C55.9033 11.5259 55.687 11.5062 55.4733 11.4694C55.9277 12.8763 57.2193 13.8391 58.6905 13.8676C57.4785 14.8263 55.9822 15.3495 54.4401 15.3538C54.1593 15.3547 53.8788 15.3378 53.6001 15.3032C55.1746 16.3251 57.0095 16.8677 58.8837 16.8654C61.4963 16.8926 64.0102 15.8631 65.8601 14.0082C67.7099 12.1533 68.7405 9.62877 68.7201 7.00226C68.7201 6.85871 68.7201 6.70671 68.7201 6.55471C69.3792 6.06055 69.9477 5.45475 70.4001 4.76448Z" fill="#323036"/>
<path fill-rule="evenodd" clip-rule="evenodd" d="M118.486 4.5065C118.078 4.5065 117.71 4.75209 117.554 5.12875C117.398 5.50542 117.485 5.93898 117.773 6.22726C118.061 6.51555 118.495 6.60179 118.871 6.44577C119.248 6.28975 119.494 5.9222 119.494 5.5145C119.494 4.95779 119.042 4.5065 118.486 4.5065ZM122.35 6.5393C122.333 5.84235 122.203 5.1528 121.963 4.4981C121.75 3.93793 121.417 3.43069 120.989 3.0113C120.573 2.58074 120.065 2.25041 119.502 2.0453C118.849 1.79847 118.159 1.66495 117.461 1.6505C116.57 1.6001 116.285 1.6001 114 1.6001C111.715 1.6001 111.43 1.6001 110.539 1.6505C109.841 1.66495 109.151 1.79847 108.498 2.0453C107.937 2.25248 107.429 2.58253 107.011 3.0113C106.581 3.42725 106.25 3.93567 106.045 4.4981C105.798 5.15107 105.665 5.84139 105.65 6.5393C105.6 7.4297 105.6 7.7153 105.6 10.0001C105.6 12.2849 105.6 12.5705 105.65 13.4609C105.665 14.1588 105.798 14.8491 106.045 15.5021C106.25 16.0645 106.581 16.5729 107.011 16.9889C107.429 17.4177 107.937 17.7477 108.498 17.9549C109.151 18.2017 109.841 18.3352 110.539 18.3497C111.43 18.4001 111.715 18.4001 114 18.4001C116.285 18.4001 116.57 18.4001 117.461 18.3497C118.159 18.3352 118.849 18.2017 119.502 17.9549C120.065 17.7498 120.573 17.4195 120.989 16.9889C121.419 16.5711 121.752 16.0634 121.963 15.5021C122.203 14.8474 122.333 14.1578 122.35 13.4609C122.35 12.5705 122.4 12.2849 122.4 10.0001C122.4 7.7153 122.4 7.4297 122.35 6.5393ZM120.838 13.3601C120.832 13.8933 120.735 14.4216 120.552 14.9225C120.418 15.2881 120.203 15.6184 119.922 15.8885C119.65 16.1661 119.32 16.3811 118.956 16.5185C118.455 16.7014 117.927 16.798 117.394 16.8041C116.554 16.8461 116.243 16.8545 114.034 16.8545C111.824 16.8545 111.514 16.8545 110.674 16.8041C110.12 16.8145 109.569 16.7292 109.044 16.5521C108.696 16.4077 108.382 16.1932 108.12 15.9221C107.841 15.6522 107.629 15.3217 107.498 14.9561C107.293 14.448 107.18 13.9077 107.162 13.3601C107.162 12.5201 107.112 12.2093 107.112 10.0001C107.112 7.7909 107.112 7.4801 107.162 6.6401C107.166 6.09498 107.266 5.55477 107.456 5.0441C107.604 4.68954 107.831 4.37349 108.12 4.1201C108.375 3.83128 108.691 3.6019 109.044 3.4481C109.556 3.26333 110.096 3.16676 110.64 3.1625C111.48 3.1625 111.791 3.1121 114 3.1121C116.209 3.1121 116.52 3.1121 117.36 3.1625C117.893 3.16861 118.422 3.26518 118.922 3.4481C119.304 3.58977 119.647 3.82009 119.922 4.1201C120.197 4.37813 120.412 4.69359 120.552 5.0441C120.739 5.5556 120.835 6.09559 120.838 6.6401C120.88 7.4801 120.888 7.7909 120.888 10.0001C120.888 12.2093 120.88 12.5201 120.838 13.3601ZM114 5.6909C111.621 5.69554 109.696 7.62688 109.699 10.0057C109.702 12.3845 111.632 14.3108 114.011 14.3093C116.39 14.3077 118.318 12.3789 118.318 10.0001C118.32 8.85508 117.866 7.75644 117.055 6.94758C116.245 6.13872 115.145 5.68642 114 5.6909ZM114 12.7973C112.455 12.7973 111.203 11.5449 111.203 10.0001C111.203 8.45525 112.455 7.2029 114 7.2029C115.545 7.2029 116.797 8.45525 116.797 10.0001C116.797 10.742 116.503 11.4534 115.978 11.978C115.453 12.5026 114.742 12.7973 114 12.7973Z" fill="#323036"/>
<g clip-path="url(#clip0_240_1163)">
<path d="M166 19.1515C171.063 19.1515 175.167 15.0508 175.167 9.99238C175.167 4.93393 171.063 0.833252 166 0.833252C160.938 0.833252 156.833 4.93393 156.833 9.99238C156.833 15.0508 160.938 19.1515 166 19.1515Z" fill="white"/>
<path d="M166 0.833252C160.938 0.833252 156.833 4.93413 156.833 9.99238C156.833 13.8746 159.248 17.1915 162.658 18.5258C162.575 17.8021 162.507 16.6865 162.688 15.8949C162.854 15.1788 163.759 11.3418 163.759 11.3418C163.759 11.3418 163.488 10.7914 163.488 9.98484C163.488 8.71086 164.227 7.76102 165.148 7.76102C165.932 7.76102 166.309 8.34901 166.309 9.05008C166.309 9.83407 165.812 11.0101 165.547 12.1031C165.329 13.0153 166.008 13.7616 166.906 13.7616C168.535 13.7616 169.788 12.0428 169.788 9.57023C169.788 7.37656 168.211 5.84627 165.955 5.84627C163.344 5.84627 161.813 7.79871 161.813 9.819C161.813 10.603 162.115 11.4473 162.492 11.9071C162.567 11.9976 162.575 12.0805 162.552 12.171C162.484 12.4574 162.326 13.0831 162.296 13.2113C162.258 13.3771 162.16 13.4148 161.986 13.3319C160.84 12.7967 160.123 11.1307 160.123 9.78131C160.123 6.89411 162.22 4.2406 166.181 4.2406C169.358 4.2406 171.832 6.50211 171.832 9.53254C171.832 12.6911 169.84 15.2316 167.079 15.2316C166.151 15.2316 165.276 14.7491 164.982 14.1762C164.982 14.1762 164.521 15.9251 164.408 16.3548C164.205 17.1538 163.646 18.1489 163.269 18.7595C164.129 19.0234 165.034 19.1666 165.985 19.1666C171.047 19.1666 175.152 15.0657 175.152 10.0075C175.167 4.93413 171.063 0.833252 166 0.833252Z" fill="#323036"/>
</g>
<defs>
<clipPath id="clip0_240_1163">
<rect width="20" height="20" fill="white" transform="translate(156)"/>
</clipPath>
</defs>
</svg>
