<svg width="48" height="48" viewBox="0 0 48 48" fill="none" xmlns="http://www.w3.org/2000/svg">
<path d="M24.0001 32.5713C28.734 32.5713 32.5716 28.7338 32.5716 23.9999C32.5716 19.266 28.734 15.4285 24.0001 15.4285C19.2663 15.4285 15.4287 19.266 15.4287 23.9999C15.4287 28.7338 19.2663 32.5713 24.0001 32.5713Z" stroke="#C00000" stroke-width="3" stroke-linecap="round" stroke-linejoin="round"/>
<path d="M24 15.4285V1.71423" stroke="#C00000" stroke-width="3" stroke-linecap="round" stroke-linejoin="round"/>
<path d="M32.5718 46.2857V41.1428H39.4289C40.3382 41.1428 41.2103 40.7816 41.8533 40.1386C42.4963 39.4956 42.8575 38.6235 42.8575 37.7142V24C42.8581 20.5237 41.8978 17.1149 40.0827 14.1501C38.2675 11.1854 35.6682 8.78008 32.5718 7.19995" stroke="#C00000" stroke-width="3" stroke-linecap="round" stroke-linejoin="round"/>
<path d="M15.4288 7.19995C12.3311 8.77914 9.73036 11.184 7.91396 14.1488C6.09755 17.1137 5.13623 20.523 5.13623 24C5.13623 27.4769 6.09755 30.8862 7.91396 33.8511C9.73036 36.8159 12.3311 39.2208 15.4288 40.7999V46.2857" stroke="#C00000" stroke-width="3" stroke-linecap="round" stroke-linejoin="round"/>
</svg>
