<svg width="42" height="44" viewBox="0 0 42 44" fill="none" xmlns="http://www.w3.org/2000/svg">
<path d="M40.2422 3.2578C39.0996 2.16625 37.5802 1.55714 36 1.55714C34.4198 1.55714 32.9005 2.16625 31.7579 3.2578L3.07504 31.938C2.0971 32.9106 1.32178 34.0676 0.793961 35.3419C0.266138 36.6162 -0.00370907 37.9825 3.85046e-05 39.3618V43.5H4.13389C5.51338 43.504 6.87997 43.2343 8.1545 42.7064C9.42902 42.1786 10.5862 41.4031 11.5589 40.425L40.2422 11.7429C40.7995 11.1858 41.2416 10.5244 41.5432 9.79647C41.8448 9.06853 42 8.28829 42 7.50033C42 6.71237 41.8448 5.93213 41.5432 5.20418C41.2416 4.47624 40.7995 3.81485 40.2422 3.2578ZM13.365 25.89L17.6079 30.1329L14.4258 33.315L10.1829 29.0727L13.365 25.89ZM9.43729 38.3034C8.74249 39.002 7.91599 39.5559 7.00565 39.933C6.09531 40.31 5.11922 40.5027 4.13389 40.5H3.00004V39.3618C2.99739 38.3766 3.19017 37.4006 3.56721 36.4904C3.94426 35.5802 4.49809 34.7538 5.19664 34.0591L8.06164 31.1941L12.3045 35.4363L9.43729 38.3034ZM38.1212 9.6211L19.7292 28.0122L15.4863 23.7693L33.8789 5.37925C34.4502 4.83352 35.2099 4.52899 36 4.52899C36.7901 4.52899 37.5498 4.83352 38.1212 5.37925C38.3998 5.65777 38.6208 5.98845 38.7716 6.35241C38.9224 6.71636 39 7.10645 39 7.5004C39 7.89436 38.9224 8.28445 38.7716 8.6484C38.6208 9.01235 38.3998 9.34258 38.1212 9.6211Z" fill="#C00000"/>
<path d="M6.75004 21C5.71173 21.0002 4.69668 20.6925 3.83328 20.1158C2.96987 19.5391 2.29689 18.7192 1.89947 17.76C1.50205 16.8008 1.39803 15.7452 1.60058 14.7269C1.80314 13.7085 2.30315 12.7731 3.03739 12.039L8.28814 6.78895C8.70925 6.36665 8.94573 5.79459 8.94573 5.1982C8.94573 4.60182 8.70925 4.02976 8.28814 3.60745C7.85933 3.19848 7.28951 2.97031 6.69694 2.97031C6.10437 2.97031 5.53455 3.19848 5.10574 3.60745L2.12254 6.59035L3.8445e-05 4.46995L2.98504 1.4872C3.98531 0.532608 5.31486 0 6.69754 0C8.08022 0 9.40976 0.532608 10.41 1.4872C11.3928 2.47248 11.9447 3.80732 11.9447 5.19895C11.9447 6.59059 11.3928 7.92542 10.41 8.9107L5.15854 14.16C4.73742 14.5823 4.50095 15.1543 4.50095 15.7507C4.50095 16.3471 4.73742 16.9191 5.15854 17.3415C5.58732 17.7504 6.15712 17.9786 6.74966 17.9786C7.34221 17.9786 7.912 17.7504 8.34079 17.3415L14.3781 11.305L16.5 13.426L10.4619 19.4625C9.97568 19.9515 9.39722 20.3392 8.76006 20.6032C8.12289 20.8671 7.43969 21.0019 6.75004 21Z" fill="#C00000"/>
</svg>
