<svg width="33" height="43" viewBox="0 0 33 43" fill="none" xmlns="http://www.w3.org/2000/svg">
<path d="M28.5 0C25.1756 0.00549375 21.9302 1.01416 19.1883 2.89408C16.4465 4.77399 14.3358 7.43763 13.1323 10.5366C12.1683 9.13806 10.879 7.99454 9.37533 7.20432C7.87169 6.4141 6.19865 6.00082 4.5 6H0V10.5C0.0030968 13.2838 1.11034 15.9527 3.0788 17.9212C5.04726 19.8897 7.71618 20.9969 10.5 21H12V34.5739C8.55459 34.9108 5.33436 36.4382 2.8935 38.8931L5.0145 41.0142C6.26928 39.7596 7.78667 38.7989 9.45738 38.2013C11.1281 37.6037 12.9106 37.384 14.6764 37.558C16.4422 37.7321 18.1475 38.2956 19.6693 39.208C21.1912 40.1204 22.4917 41.3589 23.4774 42.8343L25.9698 41.1651C24.7401 39.3275 23.1187 37.7851 21.222 36.6488C19.3252 35.5124 17.2004 34.8104 15 34.593V21H16.5C20.8745 20.995 25.0685 19.2551 28.1618 16.1618C31.2551 13.0685 32.995 8.87455 33 4.5V0H28.5ZM10.5 18C8.51157 17.9977 6.60523 17.2068 5.1992 15.8008C3.79317 14.3948 3.00226 12.4884 3 10.5V9H4.5C6.48847 9.00214 8.39487 9.79301 9.80093 11.1991C11.207 12.6051 11.9979 14.5115 12 16.5V18H10.5ZM30 4.5C29.996 8.0792 28.5724 11.5107 26.0416 14.0416C23.5107 16.5724 20.0792 17.996 16.5 18H15V16.5C15.004 12.9208 16.4276 9.48932 18.9584 6.95844C21.4893 4.42756 24.9208 3.00397 28.5 3H30V4.5Z" fill="#C00000"/>
</svg>
